<svg xmlns="http://www.w3.org/2000/svg" viewBox="0 0 1060 250" role="img" aria-labelledby="title desc">
  <title id="title">Indirect rainwater system schematic</title>
  <desc id="desc">A primary tank supplies a filtration pump and filtration system connected to a buffer tank with municipal backup and a booster pump.</desc>
  <g fill="none" stroke="#000" stroke-width="4" stroke-linecap="round" stroke-linejoin="round">
    <rect x="40" y="30" width="220" height="160" />
    <path d="M42 110 q8 -8 16 0 q8 8 16 0 q8 -8 16 0 q8 8 16 0 q8 -8 16 0 q8 8 16 0 q8 -8 16 0 q8 8 16 0 q8 -8 16 0 q8 8 16 0 q8 -8 16 0 q8 8 16 0 q8 -8 16 0 q6 8 12 0" />
    <path d="M260 150 H330" />
    <circle cx="365" cy="150" r="35" />
    <path d="M400 150 L347.5 180.31 V119.69 Z" />
    <path d="M400 150 H460" />
    <rect x="460" y="120" width="140" height="60" />
    <path d="M600 150 H680" />
    <rect x="680" y="50" width="170" height="140" />
    <path d="M682 120 q7 -7 14 0 q7 7 14 0 q7 -7 14 0 q7 7 14 0 q7 -7 14 0 q7 7 14 0 q7 -7 14 0 q7 7 14 0 q7 -7 14 0 q7 7 14 0 q7 -7 14 0 q7 7 14 0" />
    <path d="M765 4 V50" />
    <path d="M765 50 L756 34 H774 Z" fill="#000" />
    <path d="M850 150 H872" />
    <circle cx="900" cy="150" r="28" />
    <path d="M928 150 L886 174.25 V125.75 Z" />
    <path d="M928 150 H1030" />
    <path d="M1030 150 L1012 140 V160 Z" fill="#000" />
  </g>
  <g fill="#000" font-family="Arial, sans-serif" text-anchor="middle">
    <text x="150" y="57" font-size="18" font-weight="700">Primary tank</text>
    <text x="150" y="80" font-size="12">Primary analysis size: 5,000 gal</text>
    <text x="365" y="210" font-size="16" font-weight="700">Filtration pump</text>
    <text x="530" y="156" font-size="16" font-weight="700">Filtration</text>
    <text x="765" y="80" font-size="18" font-weight="700">Buffer tank</text>
    <text x="650" y="18" font-size="14" font-weight="700">Municipal water backup</text>
    <text x="900" y="210" font-size="16" font-weight="700">Booster pump</text>
    <text x="980" y="128" font-size="14" font-weight="700">To end-uses</text>
  </g>
</svg>
