<svg xmlns="http://www.w3.org/2000/svg" viewBox="0 0 900 250" role="img" aria-labelledby="title desc">
  <title id="title">Indirect rainwater system schematic</title>
  <desc id="desc">A primary tank supplies a filtration pump and filtration system connected to a booster tank.</desc>
  <g fill="none" stroke="#000" stroke-width="4" stroke-linecap="round" stroke-linejoin="round">
    <rect x="40" y="30" width="220" height="160" />
    <path d="M42 110 q8 -8 16 0 q8 8 16 0 q8 -8 16 0 q8 8 16 0 q8 -8 16 0 q8 8 16 0 q8 -8 16 0 q8 8 16 0 q8 -8 16 0 q8 8 16 0 q8 -8 16 0 q8 8 16 0 q8 -8 16 0 q6 8 12 0" />
    <path d="M260 150 H330" />
    <circle cx="365" cy="150" r="35" />
    <path d="M391 150 L349 174 V126 Z" />
    <path d="M400 150 H460" />
    <rect x="460" y="120" width="140" height="60" />
    <path d="M600 150 H680" />
    <rect x="680" y="50" width="170" height="140" />
    <path d="M682 120 q7 -7 14 0 q7 7 14 0 q7 -7 14 0 q7 7 14 0 q7 -7 14 0 q7 7 14 0 q7 -7 14 0 q7 7 14 0 q7 -7 14 0 q7 7 14 0 q7 -7 14 0 q7 7 14 0" />
  </g>
  <g fill="#000" font-family="Arial, sans-serif" text-anchor="middle">
    <text x="150" y="63" font-size="18" font-weight="700">Primary tank</text>
    <text x="365" y="210" font-size="16" font-weight="700">Filtration pump</text>
    <text x="530" y="156" font-size="16" font-weight="700">Filtration</text>
    <text x="765" y="80" font-size="18" font-weight="700">Booster tank</text>
  </g>
</svg>
